<?xml version="1.0" encoding="UTF-8"?>
<svg id="lettres" xmlns="http://www.w3.org/2000/svg" version="1.1" viewBox="0 0 1190.55 841.89">
  <!-- Generator: Adobe Illustrator 29.8.2, SVG Export Plug-In . SVG Version: 2.1.1 Build 3)  -->
  <defs>
    <style>
      .st0 {
        fill: #e5261f;
      }
    </style>
  </defs>
  <path class="st0" d="M411.34,83.06s133.38,75.72,140.94,85.84c8.89,11.91-1.79,17.66-24.69,14.75-10.89-1.39-25.76,24.97-38.18,43.47-4.62,6.89-51.71,85.52-62.18,97.2-9.02,10.06-39.3,40.82-108.29,6.71-69.07-34.16-95.45-62.28-108.6-84.26-16.45-27.51,10.19-71.61,16.74-84.64,7.08-14.09,25.25-43.59,25.82-50.24.82-9.67-13.05-19.91-11.22-28.03,1.82-8.12,9.12-10.75,22.56-3.09,18.36,10.47,98.64,59.12,106.77,65.67,2.81,2.26,5.26,5.92,1.52,10.59-3.74,4.67-49.99,77.73-50.45,82.67-.44,4.74,4.11,3.5,5.2,1.74s72.13-114.54,75.12-118.96c6.45-9.5-2.08-17.33-6.95-23.25-10.45-12.72-.33-25.83,15.88-16.14Z"/>
  <path class="st0" d="M544.95,366.59c-5.57,0-11.95-4.5-11.8-10.8.13-5.4,0-140.04,0-140.04,0-24.87-9.28-23.24-16.24-13.17-15.07,21.79-95.41,145.93-95.41,145.93-6.47,9.93-11.02,17.67-17.02,17.61-6.7-.07-6.83,5.76-2.04,5.76,5.16,0,10.08-.12,18.11,0,5.22.08,7.26-3.01,8.55-4.88,1.61-2.33,39.27-57.44,39.27-57.44.4-.6,1.08-1.05,1.8-1.07h41.7c1.29-.04,2.34,1.01,2.31,2.3-.17,7.57.3,31.25,0,41.06-.36,11.76-6.54,14.75-11.82,14.75s-5.04,5.28-.72,5.28c12.24,0,35.11,0,43.3,0,6.36,0,4.08-5.28,0-5.28ZM514.19,289.25c0,.54-.44.98-.98.98h-30.74c-.81,0-1.27-.93-.77-1.57l30.74-44.61c.57-.73,1.75-.33,1.75.6v44.61Z"/>
  <path class="st0" d="M796.6,303.12c-20.02-42.85-75.42-17.81-98.67-5.78-2.31,1.2-4.62-1.6-3.02-3.65l94.7-123.22c1.21-1.6.07-3.88-1.94-3.88h-187.9c-37.78-1.56-71.76,31.76-54.51,68.69,20.02,42.85,77.53,17.91,100.77,5.88,2.31-1.2,4.62,1.6,3.02,3.65l-96.8,123.12c-1.21,1.6-.07,3.88,1.94,3.88h187.9c37.78,1.56,71.76-31.76,54.51-68.69Z"/>
  <path class="st0" d="M775.02,234.19c-2.52-9.69,2.5-19.76,11.74-23.6,41.7-17.32,154.41-41.26,167.87-42.35,15.69-1.27,34.64,13.02,5.98,41.33-29.56,29.19-74.75,86.2-94.35,113.01-.79,1.08.04,2.59,1.38,2.5,10.99-.72,31.06.56,39.51,2.27,1.54.31,3.1-.41,3.84-1.81,6.86-12.99,31.15-44.49,38.42-51.28,16.07-14.99,53.15,1.82,32.51,29.47-16.73,22.41-29.24,40.93-37.06,60.92-1.61,4.11-5.75,6.65-10.14,6.22-33.88-3.26-103.94-3.52-137.97.93-4.77.62-8.21-4.5-5.83-8.68,18.49-32.5,88.62-120.84,105.98-137.72.89-.87.18-2.37-1.06-2.24-14.88,1.62-45.22,14.12-55.97,20.53-1.81,1.08-2.62,3.28-1.94,5.28,1.58,4.69,4.27,13.91,4.58,22.85.46,13.39-23.97,42.93-45.43,16.96-6.73-8.15-17.26-36.16-22.05-54.6Z"/>
  <path class="st0" d="M317.07,417.54c-2.95-1.69-6.51-3.09-7.63-3.52-.07-.03-.05-.14.03-.14h19.95c2.06,0,3.72-1.67,3.72-3.72v-52.4c0-2.06-1.67-3.72-3.72-3.72h-84.75c-21.22,0-38.9,16.33-39.41,36.96-.01.54-.02,1.1-.02,1.66,0,24.77,15.04,34.17,26.34,39.51,2.94,1.68,6.49,3.08,7.62,3.52.08.03.05.14-.03.14h-19.94c-2.06,0-3.72,1.67-3.72,3.72v52.4c0,2.06,1.67,3.72,3.72,3.72h84.75c21.22,0,38.9-16.33,39.41-36.96.01-.54.02-1.1.02-1.66,0-24.77-15.04-34.17-26.34-39.51Z"/>
  <path class="st0" d="M479.89,479.6l13,10.31c1.74,1.31,2.61,3.61,1.87,5.66-11.39,31.65-51.72,42.91-62.1,14.81-.59-1.59-2.57-2.09-3.83-.95-34.19,30.92-90.33,20.66-60.13-45.46,11.5-25.18,20.51-30.37,27.88-43.25.53-.93-.56-1.95-1.44-1.33-7.48,5.23-23.01,20.26-30.83,28.29-1.96,2.01-5.14,2.12-7.24.25l-12.2-10.86c-2.18-1.94-2.36-5.28-.4-7.44,11.63-12.74,35.29-34.9,41.49-39.18,21.58-14.91,55.79.9,43.16,28.25-13.25,28.7-50.39,66.25-31.46,69.21,16.09,2.52,43.69-32.01,51.06-48.87,1.24-2.85,4.68-3.99,7.38-2.45l17.43,9.89c2.64,1.5,3.46,4.92,1.79,7.45-6.56,9.92-20.76,32.49-16.06,35.41,3.99,2.48,9.76-3.99,13.23-8.68,1.74-2.34,5.04-2.82,7.37-1.06Z"/>
  <path class="st0" d="M499.84,518.91v-111.49c0-.56.34-1.06.87-1.26l52.59-20.38c.67-.26,1.43.05,1.73.71l3.52,7.87c.33.74,1.24,1.03,1.93.61,23.5-14.34,72.83-18.5,82.91,14.84,13.29,43.98-38.5,62.37-55.43,60.12-1.01-.13-1.84.82-1.49,1.77,7.76,21.26,46.04,19.65,60.79-1.27.74-1.05,2.37-.59,2.46.69,4.98,71.2-105.24,79.01-93.36-8.66.08-.56.49-1.01,1.04-1.14,27.15-6.57,37.39-36.75,28.27-46.36-6.26-6.6-30.97,10.06-35.02,44.3-2.78,23.52-.88,47.43.33,59.52.08.8-.55,1.48-1.35,1.48h-48.42c-.75,0-1.36-.61-1.36-1.36Z"/>
  <path class="st0" d="M751.62,420.28v82.39c0,.39-.32.71-.71.71h-16.41c-.39,0-.71.32-.71.71v32.11c0,.39.32.71.71.71h119.59c.39,0,.71-.32.71-.71v-60.24c0-.39-.32-.71-.71-.71h-35.85c-.39,0-.71.32-.71.71v26.71c0,.39-.32.71-.71.71h-19.91c-.39,0-.71-.32-.71-.71v-82.39c0-.39.32-.71.71-.71h16.41c.39,0,.71-.32.71-.71v-29.83c0-.39-.32-.71-.71-.71h-78.81c-.39,0-.71.32-.71.71v29.83c0,.39.32.71.71.71h16.41c.39,0,.71.32.71.71Z"/>
  <path class="st0" d="M953.75,473.24c7.89-17.09,10.67-37.95,7.26-49.42-17.95-60.41-112.81-45.01-105.1,6.51,5.22,34.91,52.16,17.16,58.63,4.13,1.45,2.53,2.14,16.44.66,18.41-54.2-12.52-63.1,42.06-51.87,58.33,18.24,26.43,60.27,14.57,71.63-5.66,1.77,19.02,35.35,30.29,48.98,7.19,15.17-25.73-11.51-51.33-30.18-39.49ZM899.48,485.04c-1.69-4.77,9.82-11.76,14.77-8.33,4.08,2.82-12.42,15-14.77,8.33Z"/>
  <path class="st0" d="M338.92,521.89c-31.05-9.75-50.38,18.35-54.98,25.48.79-9.4,6.02-21.91,10.29-27.51-6.08,0-89.15-.09-89.15-.09,9.58,21.48,9.58,159.09,0,184.76h92.71c-16.89-26.43-22-91.16-18.31-100.37,4.6,50.63,67.98,71.65,95.96,42.69,34.09-35.28,13.35-109.31-36.51-124.96ZM325.48,590.58c-9.93,8.41-20.18-.98-23.57-8.01-1.96-4.07-1.36-8.98,1.71-12.29,1.42-1.52,3.15-2.87,5.13-3.38,11.28-2.93,25.05,16.62,16.73,23.68Z"/>
  <path class="st0" d="M403.61,539.86c-2.29,0-4.21,1.74-4.43,4.02-3,31.82-4.51,132.67,1.4,151.76,6.03,19.52,23.32,36.27,71.14,26.08,2.05-.44,3.53-2.26,3.53-4.36v-38.57c0-2.62-2.25-4.7-4.86-4.43-14.93,1.58-24.42-3.33-25.36-21.44-.98-18.84.04-79.9,2.68-108.23.24-2.61-1.81-4.85-4.43-4.85h-39.66Z"/>
  <path class="st0" d="M594.68,539.86h-110.62c-.81,0-1.47.66-1.47,1.47v40.05c0,.81.66,1.47,1.47,1.47h84.32c46.68,0,45.39,19.77,45.2,52.69,0,1.41-1.8,2-2.65.87-57.11-75.7-140.14-6.06-131.07,53.1,9.98,65.13,95.94,23.48,114.41,1.74.67-.79,1.94-.63,2.41.29l16.01,31.16c.54,1.06,1.63,1.72,2.82,1.72h38.13c.81,0,1.47-.66,1.47-1.47v-122.28c0-47.47-41.04-60.82-60.41-60.82ZM525.81,673.26c-1.98-15.84,31.15-37.65,42.67-21.7,8.37,11.6-40.07,42.46-42.67,21.7Z"/>
  <path class="st0" d="M847.6,543.12l-31.4,27.06c-.79.52-1.82.5-2.58-.06-12.81-9.63-33.79-14.36-62.69-14.36-51.17,0-77.58,14.8-77.58,45.48,0,19.2,10.07,32.46,31.26,39.52,1.37.46,2.29,1.74,2.29,3.18v12.01c0,2.67,2.07,4.85,4.73,5.1,22.59,2.09,81.35,35.39,74.65,52.26-7.08,17.81-49.96-9.8-69.27-24.57-21.41-16.39-11.61-24.29-20.7-25.13-7.85-.73-28.55,31.18-34.29,46.5-10.51,28.06,19.23,30.43,85.42,30.43,53.1,0,77.58-15.52,77.58-45.48s-26.42-45.51-77.58-44.53c-5.57.11-19.49.3-27.07.99-2.02.18-3.66-1.3-3.66-3.33v-.92c0-1.76,1.57-3.08,3.3-2.8,8.95,1.49,19.24,2.24,30.92,2.24,53.1,0,77.58-15.52,77.58-45.48,0-7.88-1.75-14.71-5.21-20.52-.62-1.04-.3-2.39.71-3.05l10.74-9.45c1.05-.68-3.11-1.05-2.14-.27l13.27,10.72.18.13c7.72,4.8,19.11,1.29,19.11-7.82v-18.42c0-9.96-9.17-14.77-17.59-9.44ZM750.94,627.33c-8.63,0-12.48-11.68-12.48-26.09s3.02-26.09,12.48-26.09,12.48,11.68,12.48,26.09-3.18,26.09-12.48,26.09Z"/>
  <path class="st0" d="M982.67,624.8c-14.15-10.9-25.56,36.84-101.12,24.74.02-.1.02-.21.03-.32,65.3,6.14,117.43-50.79,89.8-96.12-14.39-23.6-76.54-17.32-113.26,35.44-21.89,31.44-44.35,111.13-1.04,128.53,48.05,19.3,107.76-2.39,121.25-19.26,12.7-15.88,12.58-66.67,4.34-73.01ZM880.11,618.44c5.74-9.29,22.44-23.61,34.71-23.52.69,0,1.19.7.93,1.34-2.84,6.97-21.73,22.55-34.81,23.78-.85.08-1.29-.87-.84-1.59Z"/>
</svg>